<mxfile host="app.diagrams.net" modified="2020-12-27T08:46:36.506Z" agent="5.0 (Windows NT 10.0; Win64; x64) AppleWebKit/537.36 (KHTML, like Gecko) Chrome/87.0.4280.88 Safari/537.36" etag="9IHrdbAEyQYBOcgJHtPJ" version="14.1.2" type="github">
  <diagram id="PFV4d4pqRK-7dhOkE-_a" name="Page-1">
    <mxGraphModel dx="1422" dy="828" grid="1" gridSize="10" guides="1" tooltips="1" connect="1" arrows="1" fold="1" page="1" pageScale="1" pageWidth="850" pageHeight="1100" background="#FFFFFF" math="0" shadow="0">
      <root>
        <mxCell id="0" />
        <mxCell id="1" parent="0" />
        <mxCell id="gH39R91gkr-ug2lqprvv-2" value="Users" style="swimlane;childLayout=stackLayout;horizontal=1;startSize=30;horizontalStack=0;fontSize=14;fontStyle=0;strokeWidth=2;resizeParent=0;resizeLast=1;shadow=0;dashed=0;align=center;fillColor=#dae8fc;strokeColor=#6c8ebf;rounded=1;" vertex="1" parent="1">
          <mxGeometry x="240" y="80" width="160" height="120" as="geometry" />
        </mxCell>
        <mxCell id="gH39R91gkr-ug2lqprvv-3" value="userName&#xa;firstName&#xa;lastName&#xa;email&#xa;phone" style="align=left;strokeColor=none;fillColor=none;spacingLeft=4;fontSize=12;verticalAlign=top;resizable=0;rotatable=0;part=1;rounded=1;" vertex="1" parent="gH39R91gkr-ug2lqprvv-2">
          <mxGeometry y="30" width="160" height="90" as="geometry" />
        </mxCell>
        <mxCell id="gH39R91gkr-ug2lqprvv-5" value="Adverts" style="swimlane;childLayout=stackLayout;horizontal=1;startSize=30;horizontalStack=0;fontSize=14;fontStyle=0;strokeWidth=2;resizeParent=0;resizeLast=1;shadow=0;dashed=0;align=center;fillColor=#ffe6cc;strokeColor=#d79b00;rounded=1;" vertex="1" parent="1">
          <mxGeometry x="440" y="80" width="160" height="150" as="geometry">
            <mxRectangle x="460" y="80" width="80" height="30" as="alternateBounds" />
          </mxGeometry>
        </mxCell>
        <mxCell id="gH39R91gkr-ug2lqprvv-6" value="title&#xa;created&#xa;modified&#xa;description&#xa;category&#xa;price&#xa;views" style="align=left;strokeColor=none;fillColor=none;spacingLeft=4;fontSize=12;verticalAlign=top;resizable=0;rotatable=0;part=1;rounded=1;" vertex="1" parent="gH39R91gkr-ug2lqprvv-5">
          <mxGeometry y="30" width="160" height="120" as="geometry" />
        </mxCell>
      </root>
    </mxGraphModel>
  </diagram>
</mxfile>
